<?xml version="1.0" ?><svg viewBox="0 0 512 512" xmlns="http://www.w3.org/2000/svg"><g id="Subscribers"><path d="M427.1085,320.4436l-17.95-15.3032a38.0342,38.0342,0,1,0-37.6258-65.8194,8.012,8.012,0,0,0-.7346-.7628L316.0562,189.495a83.6935,83.6935,0,1,0-118.2143,1.8955L142.9825,240.56c-.1372.123-.2615.2548-.3882.3848A38.0141,38.0141,0,1,0,102.8416,305.14l-17.95,15.3033a62.8356,62.8356,0,0,0-22.07,47.817v17.6224a7.3,7.3,0,0,0,7.3,7.3h97.6767a7.3,7.3,0,0,0,7.3-7.3V368.2607a62.8357,62.8357,0,0,0-22.07-47.8169l-17.95-15.3034a38.03,38.03,0,0,0,21.8285-37.0252,37.5113,37.5113,0,0,0-4.1958-14.9181,8.0343,8.0343,0,0,0,.9507-.7224l56.872-50.9731A83.122,83.122,0,0,0,248,214.5916v89.29a8.0677,8.0677,0,0,0,.0454.8445,38.031,38.031,0,0,0-8.1641,71.6369l-17.95,15.3032a62.8361,62.8361,0,0,0-22.07,47.8171v17.6224a7.3,7.3,0,0,0,7.3,7.3h97.6767a7.3,7.3,0,0,0,7.3-7.3V439.4831a62.8355,62.8355,0,0,0-22.07-47.8169l-17.95-15.3034a38.0378,38.0378,0,0,0-8.1622-71.6478,8.1111,8.1111,0,0,0,.0437-.8336v-89.29a83.1693,83.1693,0,0,0,39.759-14.6312l56.3591,50.5128c.1541.1379.3145.2637.4756.3875a38.0214,38.0214,0,0,0,16.3274,54.28l-17.95,15.3032a62.8359,62.8359,0,0,0-22.07,47.8171v17.6224a7.3,7.3,0,0,0,7.3,7.3h97.6767a7.3,7.3,0,0,0,7.3-7.3V368.261A62.8366,62.8366,0,0,0,427.1085,320.4436ZM188.3057,131.2887A67.6944,67.6944,0,1,1,256,198.983,67.7709,67.7709,0,0,1,188.3057,131.2887Z"/><path d="M235.8272,167.8536a8,8,0,0,0,8.0195-.0337l50.2227-29.3745a8,8,0,0,0,0-13.8115l-50.2227-29.375a8,8,0,0,0-12.039,6.9057v58.75A8,8,0,0,0,235.8272,167.8536Z"/></g></svg>